<svg width="316" height="451" viewBox="0 0 316 451" fill="none" xmlns="http://www.w3.org/2000/svg">
<g clip-path="url(#clip0_2087_162)">
<rect y="0.942017" width="314" height="450" rx="30" transform="rotate(-0.171894 0 0.942017)" fill="#672CBC"/>
<g style="mix-blend-mode:soft-light" opacity="0.5">
<path d="M-13.5587 148.053L92.7408 147.734C92.7408 147.734 85.071 124.457 72.2812 127.896C59.4912 131.234 59.9999 134.133 59.9999 134.133C59.9999 134.133 56.1402 114.244 39.0487 117.095C21.9571 119.947 18.1986 133.758 18.1986 133.758C18.1986 133.758 7.28571 129.491 2.49863 133.805C-2.18845 138.119 -1.28154 140.416 -1.28154 140.416C-1.28154 140.416 -11.6956 135.748 -13.5587 148.053Z" fill="white"/>
</g>
<g style="mix-blend-mode:soft-light" opacity="0.8">
<path d="M267.311 104.357C266.101 100.96 263.384 95.0683 259.179 93.6809C253.173 91.6989 244.293 98.3256 244.293 98.3256C244.293 98.3256 239.947 82.8386 225.545 82.2818C211.143 81.725 213.792 98.1171 213.792 98.1171C213.792 98.1171 210.089 97.0282 202.582 94.7507C195.075 92.4732 192.496 99.381 192.496 99.381C187.791 97.6951 185.905 102.201 185.312 104.603L267.311 104.357Z" fill="white"/>
</g>
<path d="M43.7118 4.81093C43.7118 4.81093 43.5196 7.41152 41.0205 7.71902C43.5214 8.01151 43.7292 10.6109 43.7292 10.6109C43.7292 10.6109 43.9214 8.01031 46.4205 7.70281C43.9199 7.51032 43.7118 4.81093 43.7118 4.81093Z" fill="#FFD08A"/>
<path d="M177.834 45.4087C177.834 45.4087 177.642 48.0093 175.143 48.3168C177.644 48.6093 177.852 51.2087 177.852 51.2087C177.852 51.2087 178.044 48.6081 180.543 48.3006C178.042 48.1081 177.834 45.4087 177.834 45.4087Z" fill="#FFD08A"/>
<path d="M79.8047 35.7028C79.8047 35.7028 79.6125 38.3034 77.1134 38.6109C79.6143 38.9034 79.8221 41.5027 79.8221 41.5027C79.8221 41.5027 80.0143 38.9022 82.5134 38.5947C80.0128 38.4022 79.8047 35.7028 79.8047 35.7028Z" fill="#FFD08A"/>
<path d="M300.011 104.042C300.011 104.042 299.818 106.643 297.319 106.951C299.82 107.243 300.028 109.842 300.028 109.842C300.028 109.842 300.22 107.242 302.719 106.934C300.119 106.742 300.011 104.042 300.011 104.042Z" fill="#FFD08A"/>
<path d="M183.79 163.991C183.79 163.991 183.598 166.592 181.099 166.899C183.6 167.192 183.807 169.791 183.807 169.791C183.807 169.791 184 167.191 186.499 166.883C183.898 166.691 183.79 163.991 183.79 163.991Z" fill="#FFD08A"/>
<path d="M139.321 74.5244C139.321 74.5244 138.842 81.5259 132.244 82.1457C138.846 82.8259 139.367 89.7244 139.367 89.7244C139.367 89.7244 139.846 82.7229 146.444 82.1031C139.842 81.5229 139.321 74.5244 139.321 74.5244Z" fill="#FFD08A"/>
<path d="M15.288 63.5964C15.288 63.5964 14.809 70.5979 8.21085 71.2177C14.8129 71.8979 15.3336 78.7964 15.3336 78.7964C15.3336 78.7964 15.8126 71.7949 22.4108 71.1751C15.809 70.5949 15.288 63.5964 15.288 63.5964Z" fill="#FFD08A"/>
<path d="M132.211 4.54543C132.211 4.54543 131.827 9.64661 127.028 10.161C131.83 10.6466 132.245 15.7454 132.245 15.7454C132.245 15.7454 132.63 10.6442 137.428 10.1298C132.626 9.54421 132.211 4.54543 132.211 4.54543Z" fill="#FFD08A"/>
<path d="M58.8967 99.7658C58.8967 99.7658 58.6102 104.267 54.3118 104.78C58.6129 105.167 58.9267 109.766 58.9267 109.766C58.9267 109.766 59.2132 105.265 63.5117 104.752C59.3102 104.265 58.8967 99.7658 58.8967 99.7658Z" fill="#FFD08A"/>
<path d="M100.096 199.543C100.096 199.543 99.8098 204.044 95.5113 204.556C99.8125 204.944 100.126 209.543 100.126 209.543C100.126 209.543 100.413 205.042 104.711 204.529C100.41 204.042 100.096 199.543 100.096 199.543Z" fill="#FFD08A"/>
<g style="mix-blend-mode:soft-light" opacity="0.5">
<path d="M238.316 172.728L344.616 172.409C344.616 172.409 336.946 149.132 324.156 152.57C311.366 155.909 311.875 158.807 311.875 158.807C311.875 158.807 308.015 138.919 290.924 141.77C273.832 144.621 270.074 158.432 270.074 158.432C270.074 158.432 259.161 154.165 254.374 158.48C249.687 162.794 250.594 165.091 250.594 165.091C250.594 165.091 240.18 160.422 238.316 172.728Z" fill="white"/>
</g>
<path opacity="0.25" d="M160.006 369.264C229.538 369.055 285.866 355.768 285.817 339.586C285.769 323.404 229.362 310.455 159.83 310.664C90.2976 310.873 33.9698 324.16 34.0184 340.342C34.0669 356.523 90.4734 369.472 160.006 369.264Z" fill="#D9D9D9"/>
<path d="M258.093 198.269L159.595 232.264L60.7941 198.861L13.8001 267.602L159.849 317.064L305.499 266.727L258.093 198.269Z" fill="#4E2999"/>
<path opacity="0.45" d="M30.9917 264.75L152.13 310.687L110.407 269.612C110.407 269.612 42.0574 253.317 30.9917 264.75Z" fill="#240F4F"/>
<path opacity="0.45" d="M288.39 263.978L167.53 310.641L209.006 269.316C208.906 269.316 277.156 252.612 288.39 263.978Z" fill="#240F4F"/>
<path d="M159.849 317.064L13.8001 267.602L13.8196 274.102L159.869 323.564L305.518 273.227L305.499 266.727L159.849 317.064Z" fill="#994EF8"/>
<path d="M82.2395 347.297L99.0065 302.946L153.462 321.383L82.2395 347.297Z" fill="#3B1E77"/>
<path opacity="0.45" d="M86.901 334.483L153.462 321.383L99.0065 302.946L86.901 334.483Z" fill="#3B1E77"/>
<path d="M159.855 319.064L82.2395 347.297L88.0577 353.379L159.881 327.564L231.757 352.948L237.639 346.831L159.855 319.064Z" fill="#994EF8"/>
<path d="M237.639 346.831L220.506 302.582L166.162 321.345L237.639 346.831Z" fill="#3B1E77"/>
<path opacity="0.45" d="M232.8 334.045L166.162 321.345L220.506 302.582L232.8 334.045Z" fill="#3B1E77"/>
<path d="M159.881 327.564C162.808 327.555 165.173 325.175 165.165 322.248C165.156 319.321 162.776 316.955 159.849 316.964C156.922 316.973 154.556 319.353 154.565 322.28C154.574 325.207 156.954 327.573 159.881 327.564Z" fill="white" fill-opacity="0.5"/>
<path d="M253.893 198.281L159.635 245.564L65.0941 198.848C60.8112 204.561 26.3845 262.364 26.3845 262.364C26.7845 262.363 27.0848 262.462 27.4848 262.461C114.31 270.9 138.492 298.128 146.512 304.704C154.532 311.38 159.93 310.664 159.93 310.664C159.93 310.664 165.332 311.347 173.312 304.623C181.292 297.999 205.31 270.627 292.084 261.667C292.484 261.666 292.783 261.565 293.183 261.564C292.983 261.564 258.111 204.069 253.893 198.281Z" fill="#F5B304"/>
<path d="M292.983 261.564C292.583 261.565 292.284 261.666 291.884 261.668C205.11 270.628 181.092 298 173.112 304.624C165.132 311.348 159.73 310.664 159.73 310.664C159.73 310.664 154.332 311.38 146.312 304.704C138.292 298.129 114.11 270.901 27.2848 262.461C26.8848 262.463 26.5845 262.363 26.1845 262.365C25.4878 263.467 26.1902 264.265 26.1902 264.265C113.915 272.502 137.297 299.831 145.317 306.507C153.337 313.083 159.636 312.565 159.636 312.565C159.636 312.565 165.937 313.046 173.917 306.422C181.897 299.798 205.115 272.328 292.789 263.465C292.989 263.464 293.687 262.662 292.983 261.564Z" fill="#994EF8"/>
<path d="M250.277 192.792C201.942 181.337 159.461 221.165 159.461 221.165C159.461 221.165 116.743 181.593 68.4776 193.337C68.4776 193.337 54.8406 214.378 36.0478 250.135C36.0478 250.135 131.179 260.55 159.699 300.364C187.979 260.379 283.047 249.394 283.047 249.394C264.04 213.751 250.277 192.792 250.277 192.792Z" fill="#F5EFFB"/>
<path d="M283.047 249.394C283.047 249.394 187.979 260.379 159.699 300.364C131.279 260.549 36.1478 250.135 36.1478 250.135C36.1478 250.135 36.1574 253.335 30.8763 259.651C30.8763 259.651 117.195 265.592 148.702 301.297C156.127 309.675 159.724 308.664 159.724 308.664C159.724 308.664 163.427 309.653 170.702 301.231C201.894 265.338 288.275 258.878 288.275 258.878C283.056 252.494 283.047 249.394 283.047 249.394Z" fill="#DFCBF4"/>
<path d="M244.889 197.008C244.889 197.008 208.762 187.917 159.477 226.365C110.063 188.313 73.8902 197.521 73.8902 197.521L49.6325 244.994C123.847 249.872 159.66 287.264 159.66 287.264C159.66 287.264 195.247 249.657 269.431 244.335L244.889 197.008ZM159.746 282.764C159.746 282.764 126.244 248.664 55.4241 242.177L75.7962 199.516C75.7962 199.516 111.275 192.509 159.584 228.564C207.675 192.22 243.195 199.013 243.195 199.013L263.823 241.552C193.044 248.464 159.746 282.764 159.746 282.764Z" fill="#863ED5"/>
<path opacity="0.2" d="M168.784 262.031C182.088 252.157 223.689 230.272 251.698 233.188" stroke="#863ED5" stroke-width="3" stroke-linecap="round"/>
<path opacity="0.2" d="M168.701 234.437C180.507 225.136 211.219 206.89 239.623 208.313" stroke="#863ED5" stroke-width="3" stroke-linecap="round"/>
<path opacity="0.2" d="M168.743 248.437C181.547 238.42 214.855 218.77 245.659 220.301" stroke="#863ED5" stroke-width="3" stroke-linecap="round"/>
<path opacity="0.2" d="M151.784 262.082C138.421 252.288 96.6897 230.653 68.6988 233.737" stroke="#863ED5" stroke-width="3" stroke-linecap="round"/>
<path opacity="0.2" d="M151.701 234.488C139.84 225.258 109.019 207.197 80.624 208.789" stroke="#863ED5" stroke-width="3" stroke-linecap="round"/>
<path opacity="0.2" d="M151.743 248.488C138.88 238.548 105.455 219.098 74.6601 220.814" stroke="#863ED5" stroke-width="3" stroke-linecap="round"/>
<path d="M159.561 221.164C159.561 221.164 160.551 217.661 162.454 218.656C162.454 218.656 161.424 275.359 163.49 297.453C164.007 302.951 168.829 310.437 170.738 313.231L168.238 313.239L167.545 315.541C167.545 315.541 160.107 303.063 159.792 298.164C158.227 276.169 158.877 226.466 159.561 221.164Z" fill="#54DAF5"/>
</g>
<defs>
<clipPath id="clip0_2087_162">
<rect width="314" height="450" fill="white" transform="translate(0 0.942017) rotate(-0.171894)"/>
</clipPath>
</defs>
</svg>
